<svg width="16" height="13" viewBox="0 0 16 13" fill="none" xmlns="http://www.w3.org/2000/svg">
<path fill-rule="evenodd" clip-rule="evenodd" d="M5.6 12.45C5.35147 12.7813 4.88137 12.8485 4.55 12.6L0.55 9.59996C0.361146 9.45832 0.25 9.23602 0.25 8.99996C0.25 8.76389 0.361146 8.5416 0.55 8.39996L4.55 5.39996C4.88137 5.15143 5.35147 5.21859 5.6 5.54996C5.84853 5.88133 5.78137 6.35143 5.45 6.59996L3.25 8.24996L11 8.24996C12.7949 8.24996 14.25 6.79488 14.25 4.99996C14.25 3.20503 12.7949 1.74996 11 1.74996L1 1.74996C0.585787 1.74996 0.25 1.41417 0.25 0.999956C0.25 0.585743 0.585787 0.249956 1 0.249956L11 0.249956C13.6234 0.249956 15.75 2.3766 15.75 4.99996C15.75 7.62331 13.6234 9.74996 11 9.74996L3.25 9.74996L5.45 11.4C5.78137 11.6485 5.84853 12.1186 5.6 12.45Z" fill="#FF0000"/>
</svg>
