<svg width="72" height="72" viewBox="0 0 72 72" fill="none" xmlns="http://www.w3.org/2000/svg">
<rect width="72" height="72" rx="36" fill="#009A10" fill-opacity="0.08"/>
<path fill-rule="evenodd" clip-rule="evenodd" d="M36.9886 46.0614C36.9886 47.1828 37.1861 48.2582 37.5481 49.2545C36.5012 49.4808 35.4145 49.6 34.3 49.6C25.85 49.6 19 42.75 19 34.3C19 25.85 25.85 19 34.3 19C42.75 19 49.6 25.85 49.6 34.3C49.6 35.2911 49.5058 36.2601 49.3258 37.1987C48.3878 36.8827 47.3832 36.7114 46.3386 36.7114C41.1748 36.7114 36.9886 40.8975 36.9886 46.0614ZM34.3 38.975C31.8339 38.975 29.5201 39.6104 27.5093 40.7254C26.8935 41.0669 26.1174 40.8445 25.7759 40.2287C25.4344 39.6129 25.6568 38.8369 26.2726 38.4954C28.6521 37.1759 31.3903 36.425 34.3 36.425C34.9216 36.425 35.5355 36.4593 36.1401 36.5261C36.84 36.6035 37.3447 37.2336 37.2673 37.9335C37.1899 38.6334 36.5598 39.138 35.8599 39.0607C35.3482 39.0041 34.8278 38.975 34.3 38.975ZM34.3 24.1C37.1167 24.1 39.4 26.3833 39.4 29.2C39.4 32.0167 37.1167 34.3 34.3 34.3C31.4833 34.3 29.2 32.0167 29.2 29.2C29.2 26.3833 31.4833 24.1 34.3 24.1ZM53 46.2C53 43.2787 51.1579 40.7877 48.572 39.8251C47.8335 39.5502 47.0343 39.4 46.2 39.4C42.4445 39.4 39.4 42.4445 39.4 46.2C39.4 47.0343 39.5502 47.8335 39.8251 48.572C40.7877 51.1579 43.2787 53 46.2 53C49.9555 53 53 49.9555 53 46.2ZM47.475 42.8C47.475 42.0958 46.9042 41.525 46.2 41.525C45.4958 41.525 44.925 42.0958 44.925 42.8V44.925H42.8C42.0958 44.925 41.525 45.4958 41.525 46.2C41.525 46.9042 42.0958 47.475 42.8 47.475H44.925V49.6C44.925 50.3042 45.4958 50.875 46.2 50.875C46.9042 50.875 47.475 50.3042 47.475 49.6V47.475H49.6C50.3042 47.475 50.875 46.9042 50.875 46.2C50.875 45.4958 50.3042 44.925 49.6 44.925H47.475V42.8Z" fill="#009A10"/>
</svg>
