<svg width="124" height="39" viewBox="0 0 124 39" fill="none" xmlns="http://www.w3.org/2000/svg">
<path d="M2.13244 28V5.03529H13.2867C16.1081 5.03529 18.3936 5.84453 20.1433 7.46299C21.9149 9.05959 22.8007 11.0389 22.8007 13.401C22.8007 15.7631 21.9149 17.7534 20.1433 19.3718C18.3936 20.9684 16.1081 21.7667 13.2867 21.7667H8.20168V28H2.13244ZM8.20168 16.1896H13.1227C14.26 16.1896 15.113 15.9381 15.6816 15.435C16.2721 14.932 16.5674 14.254 16.5674 13.401C16.5674 12.548 16.2721 11.87 15.6816 11.367C15.113 10.864 14.26 10.6124 13.1227 10.6124H8.20168V16.1896ZM25.9045 28V5.03529H37.3868C40.1207 5.03529 42.3297 5.81172 44.0138 7.36457C45.7198 8.89555 46.5727 10.7983 46.5727 13.0729C46.5727 16.0255 45.0417 18.322 41.9798 19.9624L46.7368 28H40.1754L36.0746 21.1106H31.9737V28H25.9045ZM31.9737 15.5334H37.2228C38.1633 15.5334 38.9178 15.2929 39.4865 14.8117C40.0551 14.3305 40.3395 13.7509 40.3395 13.0729C40.3395 12.3949 40.0551 11.8154 39.4865 11.3342C38.9178 10.853 38.1633 10.6124 37.2228 10.6124H31.9737V15.5334Z" fill="#3C4BDC"/>
<path d="M48.5527 22.4229H54.1298C54.2173 22.7509 54.4032 23.0571 54.6875 23.3414C55.278 23.932 56.131 24.2272 57.2464 24.2272C58.7774 24.2272 59.5429 23.8445 59.5429 23.079C59.5429 22.7291 59.3242 22.4557 58.8868 22.2588C58.4494 22.0401 57.7932 21.8214 56.9184 21.6027C56.1966 21.4277 55.7264 21.3184 55.5077 21.2746C55.289 21.2309 54.8297 21.1106 54.1298 20.9137C53.4299 20.695 52.9269 20.5091 52.6207 20.356C52.3364 20.1811 51.9318 19.9405 51.4068 19.6343C50.9038 19.3062 50.532 18.9782 50.2914 18.6501C50.0727 18.3001 49.8649 17.8737 49.6681 17.3706C49.4713 16.8457 49.3728 16.288 49.3728 15.6975C49.3728 14.254 50.018 13.0183 51.3084 11.9903C52.5988 10.9624 54.4141 10.4484 56.7543 10.4484C59.6851 10.4484 62.0034 11.4107 63.7094 13.3354C64.3874 14.1665 64.8576 15.1179 65.1201 16.1896H59.707C59.5757 15.8396 59.4226 15.5663 59.2477 15.3694C58.7446 14.8226 58.0229 14.5492 57.0824 14.5492C55.7701 14.5492 55.114 14.932 55.114 15.6975C55.114 16.0693 55.3327 16.3536 55.7701 16.5505C56.2076 16.7473 56.8746 16.9332 57.7714 17.1082C60.0241 17.6331 61.5441 18.0924 62.3315 18.4861C64.2999 19.4484 65.2841 20.9247 65.2841 22.915C65.2841 24.4897 64.5842 25.8129 63.1845 26.8846C61.8066 27.9563 59.8272 28.4921 57.2464 28.4921C54.0751 28.4921 51.6584 27.486 49.9962 25.4739C49.2525 24.5772 48.7714 23.5602 48.5527 22.4229ZM67.7343 34.2333V10.9405H73.3115V13.237H73.6396C73.9458 12.7339 74.3613 12.2746 74.8862 11.8591C76.0891 10.9186 77.3686 10.4484 78.7246 10.4484C80.8242 10.4484 82.6067 11.2795 84.0721 12.9417C85.5375 14.5821 86.2701 16.7582 86.2701 19.4703C86.2701 22.1823 85.5375 24.3694 84.0721 26.0316C82.6067 27.6719 80.8242 28.4921 78.7246 28.4921C77.3467 28.4921 76.0673 28.0328 74.8862 27.1142C74.3613 26.6987 73.9458 26.2284 73.6396 25.7035H73.3115V34.2333H67.7343ZM74.2957 16.3208C73.6396 17.0644 73.3115 18.1142 73.3115 19.4703C73.3115 20.8263 73.6396 21.8761 74.2957 22.6197C74.9518 23.3633 75.8267 23.7351 76.9202 23.7351C78.0138 23.7351 78.8886 23.3633 79.5448 22.6197C80.2009 21.8761 80.529 20.8263 80.529 19.4703C80.529 18.1142 80.2009 17.0644 79.5448 16.3208C78.8886 15.5772 78.0138 15.2054 76.9202 15.2054C75.8267 15.2054 74.9518 15.5772 74.2957 16.3208Z" fill="#353437"/>
<mask id="path-2-inside-1_231_3131" fill="white">
<path d="M110 19.9524C110 17.3128 108.951 14.7814 107.085 12.915C105.219 11.0486 102.687 10 100.048 10C97.4081 10 94.8766 11.0486 93.0102 12.915C91.1438 14.7814 90.0952 17.3128 90.0952 19.9524L95.569 19.9524C95.569 18.7646 96.0409 17.6254 96.8808 16.7856C97.7207 15.9457 98.8598 15.4738 100.048 15.4738C101.235 15.4738 102.375 15.9457 103.214 16.7856C104.054 17.6254 104.526 18.7646 104.526 19.9524L110 19.9524Z"/>
</mask>
<path d="M110 19.9524C110 17.3128 108.951 14.7814 107.085 12.915C105.219 11.0486 102.687 10 100.048 10C97.4081 10 94.8766 11.0486 93.0102 12.915C91.1438 14.7814 90.0952 17.3128 90.0952 19.9524L95.569 19.9524C95.569 18.7646 96.0409 17.6254 96.8808 16.7856C97.7207 15.9457 98.8598 15.4738 100.048 15.4738C101.235 15.4738 102.375 15.9457 103.214 16.7856C104.054 17.6254 104.526 18.7646 104.526 19.9524L110 19.9524Z" stroke="#353437" stroke-width="118" mask="url(#path-2-inside-1_231_3131)"/>
<mask id="path-3-inside-2_231_3131" fill="white">
<path d="M88 19.9524C88 22.5919 89.0486 25.1234 90.915 26.9898C92.7814 28.8562 95.3129 29.9048 97.9524 29.9048C100.592 29.9048 103.123 28.8562 104.99 26.9898C106.856 25.1234 107.905 22.5919 107.905 19.9524L102.431 19.9524C102.431 21.1402 101.959 22.2793 101.119 23.1192C100.279 23.9591 99.1402 24.431 97.9524 24.431C96.7646 24.431 95.6255 23.9591 94.7856 23.1192C93.9457 22.2793 93.4738 21.1402 93.4738 19.9524L88 19.9524Z"/>
</mask>
<path d="M88 19.9524C88 22.5919 89.0486 25.1234 90.915 26.9898C92.7814 28.8562 95.3129 29.9048 97.9524 29.9048C100.592 29.9048 103.123 28.8562 104.99 26.9898C106.856 25.1234 107.905 22.5919 107.905 19.9524L102.431 19.9524C102.431 21.1402 101.959 22.2793 101.119 23.1192C100.279 23.9591 99.1402 24.431 97.9524 24.431C96.7646 24.431 95.6255 23.9591 94.7856 23.1192C93.9457 22.2793 93.4738 21.1402 93.4738 19.9524L88 19.9524Z" stroke="#353437" stroke-width="118" mask="url(#path-3-inside-2_231_3131)"/>
<path d="M110.492 17.3694V12.9405H112.625V9.33176H118.202V12.9405H122.631V17.3694H118.202V25.5711H122.959V30H112.625V17.3694H110.492Z" fill="#353437"/>
</svg>
