<svg width="72" height="72" viewBox="0 0 72 72" fill="none" xmlns="http://www.w3.org/2000/svg">
<rect width="72" height="72" rx="36" fill="#3C4BDC" fill-opacity="0.08"/>
<path d="M39.2407 41.8924L42.4611 47.4704C43.0824 48.5466 42.7137 49.9226 41.6376 50.544C40.5614 51.1653 39.1853 50.7966 38.564 49.7204L34.5837 42.8263M47.182 25.2453L47.731 23.1962M50.182 30.4415L52.231 30.9905M30.1476 43.7405L46.0757 40.0933C48.0432 39.6428 49.0134 37.417 48.0042 35.669L41.5661 24.5178C40.5568 22.7698 38.1442 22.4971 36.7703 23.9758L25.6476 35.9463L30.1476 43.7405ZM26.0227 36.5958L29.7727 43.091C30.394 44.1671 30.0253 45.5432 28.9491 46.1645C27.8729 46.7858 26.4969 46.4171 25.8755 45.341L22.1255 38.8458C21.5042 37.7696 21.8729 36.3935 22.9491 35.7722C24.0253 35.1509 25.4013 35.5196 26.0227 36.5958Z" stroke="#3C4BDC" stroke-width="2" stroke-linecap="round" stroke-linejoin="round"/>
</svg>
