<svg width="72" height="72" viewBox="0 0 72 72" fill="none" xmlns="http://www.w3.org/2000/svg">
<rect width="72" height="72" rx="36" fill="#FF5C00" fill-opacity="0.08"/>
<path d="M21.75 50.25H50.25M38.8253 25.4102C38.8253 25.4102 38.8253 27.9984 41.4135 30.5865C44.0016 33.1747 46.5898 33.1747 46.5898 33.1747M28.5894 45.4811L34.0245 44.7047C34.8085 44.5927 35.5351 44.2294 36.0951 43.6694L49.1779 30.5865C50.6073 29.1571 50.6073 26.8396 49.1779 25.4102L46.5898 22.822C45.1604 21.3927 42.8429 21.3927 41.4135 22.822L28.3306 35.9049C27.7706 36.4649 27.4073 37.1915 27.2953 37.9755L26.5189 43.4106C26.3463 44.6184 27.3816 45.6537 28.5894 45.4811Z" stroke="#FF5C00" stroke-width="2" stroke-linecap="round"/>
</svg>
