<svg width="18" height="19" viewBox="0 0 18 19" fill="none" xmlns="http://www.w3.org/2000/svg">
<circle cx="12.75" cy="5.75" r="3.75" stroke="#3C4BDC"/>
<path d="M14.25 4.25V7.25" stroke="#3C4BDC" stroke-width="1.5" stroke-linecap="round" stroke-linejoin="round"/>
<path d="M11.25 4.25V7.25" stroke="#3C4BDC" stroke-width="1.5" stroke-linecap="round" stroke-linejoin="round"/>
<path d="M14.25 5.75L11.25 5.75" stroke="#3C4BDC" stroke-linecap="round" stroke-linejoin="round"/>
<path d="M13.5 15.6667V15.0124C13.5 14.1996 13.0052 13.4687 12.2506 13.1669L11.5508 12.887C10.7684 12.574 9.87682 12.913 9.5 13.6667C9.5 13.6667 7.83333 13.3333 6.5 12C5.16667 10.6667 4.83333 9 4.83333 9C5.58698 8.62318 5.92596 7.73158 5.61303 6.94924L5.33311 6.24945C5.03126 5.49482 4.30039 5 3.48764 5H2.83333C2.09695 5 1.5 5.59695 1.5 6.33333C1.5 12.2244 6.27563 17 12.1667 17C12.903 17 13.5 16.403 13.5 15.6667Z" stroke="#3C4BDC" stroke-linejoin="round"/>
</svg>
