<svg width="25" height="24" viewBox="0 0 25 24" fill="none" xmlns="http://www.w3.org/2000/svg">
<path opacity="0.4" d="M22.5 12C22.5 17.5228 18.0228 22 12.5 22C6.97715 22 2.5 17.5228 2.5 12C2.5 6.47715 6.97715 2 12.5 2C18.0228 2 22.5 6.47715 22.5 12Z" fill="#FF5C00"/>
<path fill-rule="evenodd" clip-rule="evenodd" d="M13.25 8C13.25 7.58579 12.9142 7.25 12.5 7.25C12.0858 7.25 11.75 7.58579 11.75 8V11.25H8.5C8.08579 11.25 7.75 11.5858 7.75 12C7.75 12.4142 8.08579 12.75 8.5 12.75H11.75V16C11.75 16.4142 12.0858 16.75 12.5 16.75C12.9142 16.75 13.25 16.4142 13.25 16V12.75H16.5C16.9142 12.75 17.25 12.4142 17.25 12C17.25 11.5858 16.9142 11.25 16.5 11.25H13.25V8Z" fill="#FF5C00"/>
</svg>
