<svg width="26" height="26" viewBox="0 0 26 26" fill="none" xmlns="http://www.w3.org/2000/svg">
<path fill-rule="evenodd" clip-rule="evenodd" d="M2.20837 5.99992C2.20837 3.90584 3.90596 2.20825 6.00004 2.20825H15.3334C15.8166 2.20825 16.2084 1.8165 16.2084 1.33325C16.2084 0.850003 15.8166 0.458252 15.3334 0.458252H6.00004C2.93946 0.458252 0.458374 2.93934 0.458374 5.99992V19.9999C0.458374 23.0605 2.93946 25.5416 6.00004 25.5416H20C23.0606 25.5416 25.5417 23.0605 25.5417 19.9999V10.6666C25.5417 10.1833 25.15 9.79158 24.6667 9.79158C24.1835 9.79158 23.7917 10.1833 23.7917 10.6666V14.75L23.7761 14.7395L20.3952 12.4856C18.8087 11.4279 16.6962 11.6371 15.348 12.9853L10.6521 17.6812C9.30387 19.0294 7.19139 19.2386 5.6049 18.1809L2.20837 15.9166V5.99992ZM22.0417 1.33325C22.0417 0.850003 21.65 0.458252 21.1667 0.458252C20.6835 0.458252 20.2917 0.850003 20.2917 1.33325V3.95825H17.6667C17.1835 3.95825 16.7917 4.35 16.7917 4.83325C16.7917 5.3165 17.1835 5.70825 17.6667 5.70825H20.2917V8.33325C20.2917 8.8165 20.6835 9.20825 21.1667 9.20825C21.65 9.20825 22.0417 8.8165 22.0417 8.33325V5.70825H24.6667C25.15 5.70825 25.5417 5.3165 25.5417 4.83325C25.5417 4.35 25.15 3.95825 24.6667 3.95825H22.0417V1.33325ZM8.91671 11.8333C10.5275 11.8333 11.8334 10.5274 11.8334 8.91658C11.8334 7.30575 10.5275 5.99992 8.91671 5.99992C7.30588 5.99992 6.00004 7.30575 6.00004 8.91658C6.00004 10.5274 7.30588 11.8333 8.91671 11.8333Z" fill="#3C4BDC"/>
</svg>
